HIERARCHY
ROOT Hips
{
	OFFSET	0.00	0.00	0.00
	CHANNELS 6 Xposition Yposition Zposition Zrotation Xrotation Yrotation
	JOINT LeftUpLeg
	{
		OFFSET	 0.126116	-0.014019	-0.065224
		CHANNELS 3 Zrotation Xrotation Yrotation
		JOINT LeftLeg
		{
			OFFSET	 0.000000	 0.000000	 0.569914
			CHANNELS 3 Zrotation Xrotation Yrotation
			JOINT LeftFoot
			{
				OFFSET	 0.000000	 0.000000	 0.544423
				CHANNELS 3 Zrotation Xrotation Yrotation
				JOINT LeftToeBase
				{
					OFFSET	 0.000000	 0.000000	 0.207117
					CHANNELS 3 Zrotation Xrotation Yrotation
					End Site
					{
						OFFSET	 0.000000	 0.000000	 0.207117
					}
				}
			}
		}
	}
	JOINT RightUpLeg
	{
		OFFSET	-0.124023	-0.008373	-0.065224
		CHANNELS 3 Zrotation Xrotation Yrotation
		JOINT RightLeg
		{
			OFFSET	 0.000000	 0.000000	 0.570047
			CHANNELS 3 Zrotation Xrotation Yrotation
			JOINT RightFoot
			{
				OFFSET	 0.000000	 0.000000	 0.544354
				CHANNELS 3 Zrotation Xrotation Yrotation
				JOINT RightToeBase
				{
					OFFSET	 0.000000	 0.000000	 0.207540
					CHANNELS 3 Zrotation Xrotation Yrotation
					End Site
					{
						OFFSET	 0.000000	 0.000000	 0.207540
					}
				}
			}
		}
	}
	JOINT Spine
	{
		OFFSET	 0.000184	-0.007763	 0.117403
		CHANNELS 3 Zrotation Xrotation Yrotation
		JOINT Spine1
		{
			OFFSET	 0.000000	 0.000000	 0.137269
			CHANNELS 3 Zrotation Xrotation Yrotation
			JOINT Spine2
			{
				OFFSET	 0.000000	 0.000000	 0.156879
				CHANNELS 3 Zrotation Xrotation Yrotation
				JOINT LeftShoulder
				{
					OFFSET	 0.080501	-0.002496	 0.160144
					CHANNELS 3 Zrotation Xrotation Yrotation
					JOINT LeftArm
					{
						OFFSET	 0.000000	 0.000000	 0.164363
						CHANNELS 3 Zrotation Xrotation Yrotation
						JOINT LeftForeArm
						{
							OFFSET	 0.000000	 0.000000	 0.364576
							CHANNELS 3 Zrotation Xrotation Yrotation
							JOINT LeftHand
							{
								OFFSET	 0.000000	 0.000000	 0.360812
								CHANNELS 3 Zrotation Xrotation Yrotation
								JOINT LeftHandIndex1
								{
									OFFSET	 0.000000	 0.000000	 0.086006
									CHANNELS 3 Zrotation Xrotation Yrotation
									JOINT LeftHandIndex2
									{
										OFFSET	 0.000000	 0.000000	 0.047237
										CHANNELS 3 Zrotation Xrotation Yrotation
										JOINT LeftHandIndex3
										{
											OFFSET	-0.004284	-0.000551	 0.038165
											CHANNELS 3 Zrotation Xrotation Yrotation
											End Site
											{
												OFFSET	-0.004284	-0.000551	 0.038165
											}
										}
									}
								}
							}
						}
					}
				}
				JOINT Neck
				{
					OFFSET	 0.000000	 0.000000	 0.176489
					CHANNELS 3 Zrotation Xrotation Yrotation
					JOINT Head
					{
						OFFSET	 0.000000	-0.001747	 0.077940
						CHANNELS 3 Zrotation Xrotation Yrotation
						End Site
						{
							OFFSET	 0.000000	-0.001747	 0.077940
						}
					}
				}
				JOINT RightShoulder
				{
					OFFSET	-0.080363	 0.000306	 0.159706
					CHANNELS 3 Zrotation Xrotation Yrotation
					JOINT RightArm
					{
						OFFSET	 0.000000	 0.000000	 0.164196
						CHANNELS 3 Zrotation Xrotation Yrotation
						JOINT RightForeArm
						{
							OFFSET	 0.000000	 0.000000	 0.365611
							CHANNELS 3 Zrotation Xrotation Yrotation
							JOINT RightHand
							{
								OFFSET	 0.000000	 0.000000	 0.360648
								CHANNELS 3 Zrotation Xrotation Yrotation
								JOINT RightHandIndex1
								{
									OFFSET	 0.000000	 0.000000	 0.069977
									CHANNELS 3 Zrotation Xrotation Yrotation
									JOINT RightHandIndex2
									{
										OFFSET	 0.000000	 0.000000	 0.052305
										CHANNELS 3 Zrotation Xrotation Yrotation
										JOINT RightHandIndex3
										{
											OFFSET	 0.009002	-0.000782	 0.042196
											CHANNELS 3 Zrotation Xrotation Yrotation
											End Site
											{
												OFFSET	 0.009002	-0.000782	 0.042196
											}
										}
									}
								}
							}
						}
					}
				}
			}
		}
	}
}
MOTION
Frames:    10
Frame Time: 0.03333334
-0.714624	-0.023764	 1.254277	 169.512700	-4.553653	 1.483396	 4.542180	-3.321694	 175.689200	-2.298456	-33.335110	-2.069475	-61.877900	 78.182490	 52.905650	-2.385833	 28.452760	 0.000004	-27.446970	-8.069475	-169.581200	 10.141920	-33.580540	 5.775187	 29.703450	 79.976550	-31.257140	 2.384659	 28.388700	-0.000001	 10.389040	-3.270427	-14.403020	 5.546680	 8.925080	-2.644573	 8.098701	 3.797962	 5.240436	-91.776230	 78.527400	-180.000000	-11.076330	 49.998530	-25.919940	-32.752000	 15.270280	-45.810040	-37.168950	-35.875450	-21.287760	-4.130354	 21.526190	 0.991307	-5.167926	 0.731697	 3.519349	-1.378229	 35.397820	-2.634230	 14.509490	 6.027038	-2.501458	 8.297482	-12.690850	-1.411384	 89.782160	 78.203870	 179.999900	-58.120400	 5.936059	 72.289480	 10.116330	 1.357514	 142.691200	 8.068428	 7.050980	 14.523380	 5.716295	 19.173350	-3.684826	 5.027458	 0.246833	-9.377971	-2.350882	 35.473990	 5.254307
-0.714419	-0.024127	 1.253486	 169.163800	-4.702707	 1.528148	 4.145453	-3.055601	 175.763000	-2.117023	-33.345830	-1.970038	-62.377650	 78.167050	 53.245910	-2.385833	 28.452760	 0.000004	-27.796640	-8.075046	-169.485000	 10.325490	-33.629280	 5.886566	 29.058450	 80.088170	-30.753960	 2.384659	 28.388700	-0.000001	 11.299610	-3.417168	-14.695740	 6.125842	 9.478552	-3.374570	 8.079676	 2.787252	 6.183850	-91.776210	 78.527380	-180.000000	-14.257130	 48.151910	-24.911000	-32.449250	 16.307700	-48.274380	-38.325530	-36.053970	-22.198370	-4.130354	 21.526190	 0.991307	-5.167926	 0.731697	 3.519349	-1.378229	 35.397820	-2.634230	 14.595280	 5.816463	-2.732936	 8.228428	-13.443630	-2.605630	 89.782190	 78.203870	 179.999900	-58.454360	 4.408687	 73.179420	 10.644610	 0.978911	 141.994000	 5.112023	 6.398688	 14.486970	 5.716295	 19.173350	-3.684826	 5.027458	 0.246833	-9.377971	-2.350882	 35.473990	 5.254307
-0.714504	-0.024721	 1.252976	 168.811600	-4.894404	 1.727184	 3.960587	-2.922735	 175.787700	-1.974768	-33.430950	-1.895923	-61.867780	 78.150380	 52.577470	-2.385833	 28.452760	 0.000004	-28.120600	-8.057005	-169.412700	 10.473480	-33.564710	 5.960448	 27.885710	 79.936120	-29.766650	 2.384659	 28.388700	-0.000001	 12.117180	-3.378811	-15.256400	 6.534302	 9.979519	-3.680309	 8.060360	 1.868535	 7.256312	-91.776180	 78.527420	-180.000000	-16.804160	 46.406100	-23.909520	-31.626680	 17.413400	-51.834870	-38.917000	-36.070160	-22.559160	-4.130354	 21.526190	 0.991307	-5.167926	 0.731697	 3.519349	-1.378229	 35.397820	-2.634230	 14.777130	 5.333916	-3.440981	 8.082192	-13.768450	-3.838077	 89.782070	 78.203890	-180.000000	-58.996740	 3.396315	 74.141050	 11.121550	 0.619964	 141.362400	 2.681757	 6.084241	 14.587910	 5.716295	 19.173350	-3.684826	 5.027458	 0.246833	-9.377971	-2.350882	 35.473990	 5.254307
-0.714124	-0.025345	 1.252388	 168.505700	-4.971374	 1.861614	 3.677849	-2.922582	 175.948500	-1.830163	-33.479850	-1.818416	-61.467810	 78.263140	 52.009300	-2.385833	 28.452760	 0.000004	-28.452520	-8.241977	-169.309300	 10.636280	-33.561760	 6.052252	 26.915750	 79.749040	-28.953860	 2.384659	 28.388700	-0.000001	 12.942340	-3.653948	-15.535490	 7.005362	 10.733020	-3.740681	 8.090359	 0.814256	 7.715878	-91.776120	 78.527400	 179.999900	-20.055070	 44.624040	-23.354200	-30.806120	 18.317310	-54.990300	-39.605780	-36.160040	-23.027950	-4.130354	 21.526190	 0.991307	-5.167926	 0.731697	 3.519349	-1.378229	 35.397820	-2.634230	 14.920100	 5.169615	-3.953172	 7.967954	-14.389800	-4.418952	 89.782100	 78.203870	 180.000000	-59.104650	 2.106419	 75.109880	 11.635780	 0.213713	 140.713100	 0.030821	 5.555822	 14.425460	 5.716295	 19.173350	-3.684826	 5.027458	 0.246833	-9.377971	-2.350882	 35.473990	 5.254307
-0.713586	-0.025809	 1.251894	 168.291400	-4.967021	 1.926318	 3.394270	-2.978685	 176.131600	-1.716287	-33.487830	-1.755804	-61.296820	 78.408930	 51.706600	-2.385833	 28.452760	 0.000004	-28.722020	-8.484678	-169.223900	 10.772070	-33.599430	 6.135260	 26.301190	 79.610860	-28.442110	 2.384659	 28.388700	-0.000001	 13.602700	-4.044626	-15.583360	 7.439530	 11.423740	-3.717627	 8.123892	-0.054877	 7.759007	-91.776230	 78.527380	-179.999900	-22.924340	 43.223530	-23.510020	-30.326170	 18.813930	-56.758320	-40.200340	-36.267260	-23.454730	-4.130354	 21.526190	 0.991307	-5.167926	 0.731697	 3.519349	-1.378229	 35.397820	-2.634230	 15.011960	 5.222722	-4.241853	 7.900634	-15.042850	-4.502820	 89.782040	 78.203900	-179.999900	-58.921820	 0.960647	 75.899830	 12.054640	-0.131381	 140.181000	-2.154268	 5.040097	 14.049550	 5.716295	 19.173350	-3.684826	 5.027458	 0.246833	-9.377971	-2.350882	 35.473990	 5.254307
-0.713025	-0.026218	 1.251425	 168.039700	-4.936195	 1.880603	 3.031551	-2.963553	 176.385100	-1.586172	-33.390840	-1.679555	-60.959140	 78.538900	 51.231590	-2.385833	 28.452760	 0.000004	-29.018860	-8.804502	-169.089500	 10.937370	-33.722240	 6.249074	 25.926800	 79.603370	-28.160050	 2.384659	 28.388700	-0.000001	 14.487970	-4.572086	-15.545610	 8.058048	 12.157780	-3.710410	 8.144552	-1.024965	 7.734024	-91.776250	 78.527380	-179.999900	-26.006790	 41.877570	-24.275790	-29.712720	 19.365500	-58.876930	-40.912500	-36.368720	-23.933840	-4.130354	 21.526190	 0.991307	-5.167926	 0.731697	 3.519349	-1.378229	 35.397820	-2.634230	 15.091940	 5.425316	-4.537680	 7.847165	-15.956220	-4.485463	 89.782090	 78.203890	-180.000000	-58.349580	-0.562953	 76.941810	 12.642930	-0.637203	 139.494200	-4.942629	 4.363293	 13.226450	 5.716295	 19.173350	-3.684826	 5.027458	 0.246833	-9.377971	-2.350882	 35.473990	 5.254307
-0.712582	-0.026464	 1.251137	 167.831900	-4.891497	 1.764817	 2.707452	-2.894759	 176.605400	-1.480574	-33.229800	-1.614403	-60.607660	 78.604620	 50.781960	-2.385833	 28.452760	 0.000004	-29.255130	-9.092138	-168.969300	 11.080630	-33.890340	 6.358307	 25.850660	 79.718110	-28.138110	 2.384659	 28.388700	-0.000001	 15.306550	-5.064146	-15.440570	 8.661948	 12.696350	-3.715884	 8.144946	-1.781621	 7.655169	-91.776180	 78.527360	-180.000000	-28.343280	 40.990520	-25.307970	-29.102260	 19.832710	-60.859250	-41.511800	-36.435590	-24.314640	-4.130354	 21.526190	 0.991307	-5.167926	 0.731697	 3.519349	-1.378229	 35.397820	-2.634230	 15.141730	 5.679172	-4.756248	 7.819900	-16.801880	-4.399405	 89.782150	 78.203850	 180.000000	-57.607010	-1.883762	 77.921870	 13.183980	-1.123320	 138.889700	-7.336841	 3.823784	 12.180610	 5.716295	 19.173350	-3.684826	 5.027458	 0.246833	-9.377971	-2.350882	 35.473990	 5.254307
-0.712270	-0.026694	 1.250893	 167.592300	-4.853675	 1.634384	 2.332252	-2.784920	 176.844100	-1.355051	-33.039760	-1.537678	-60.165540	 78.636620	 50.230150	-2.385833	 28.452760	 0.000004	-29.509540	-9.375178	-168.834100	 11.241380	-34.054710	 6.477700	 25.568330	 79.847180	-27.915380	 2.384659	 28.388700	-0.000001	 16.249730	-5.567740	-15.355670	 9.357786	 13.229590	-3.800761	 8.133270	-2.575432	 7.680779	-91.776100	 78.527360	 179.999900	-30.781930	 39.891690	-27.207260	-28.761240	 20.120830	-61.988650	-42.028550	-36.431080	-24.567120	-4.130354	 21.526190	 0.991307	-5.167926	 0.731697	 3.519349	-1.378229	 35.397820	-2.634230	 15.159950	 5.832485	-4.965068	 7.781018	-17.609280	-4.439105	 89.782140	 78.203830	 180.000000	-56.683060	-3.281374	 79.072340	 13.834450	-1.737425	 138.130500	-10.012880	 3.431595	 10.953010	 5.716295	 19.173350	-3.684826	 5.027458	 0.246833	-9.377971	-2.350882	 35.473990	 5.254307
-0.712545	-0.026733	 1.250827	 167.349500	-4.839410	 1.517319	 1.957243	-2.621557	 177.092400	-1.228019	-32.878780	-1.461955	-59.888830	 78.689090	 49.832600	-2.385833	 28.452760	 0.000004	-29.755050	-9.549462	-168.661100	 11.385590	-34.094840	 6.567451	 25.175420	 79.913670	-27.597680	 2.384659	 28.388700	-0.000001	 17.176360	-5.986418	-15.335530	 10.040610	 13.733530	-4.103559	 8.124443	-3.333927	 7.894416	-91.776120	 78.527360	 180.000000	-32.656650	 38.911380	-29.627550	-28.707180	 20.238680	-62.247780	-42.442530	-36.379670	-24.708210	-4.130354	 21.526190	 0.991307	-5.167926	 0.731697	 3.519349	-1.378229	 35.397820	-2.634230	 15.154950	 5.904898	-5.149398	 7.735257	-18.321690	-4.561285	 89.782070	 78.203850	-180.000000	-55.764750	-4.654050	 80.198390	 14.488920	-2.402328	 137.200900	-12.648520	 3.286569	 9.803880	 5.716295	 19.173350	-3.684826	 5.027458	 0.246833	-9.377971	-2.350882	 35.473990	 5.254307
-0.713502	-0.026389	 1.251012	 167.112200	-4.869042	 1.501259	 1.455851	-2.349626	 177.277200	-1.069642	-32.776930	-1.372071	-60.971400	 78.882910	 50.746200	-2.385833	 28.452760	 0.000004	-30.088240	-9.481521	-168.496800	 11.509400	-33.923300	 6.609762	 24.983300	 79.872310	-27.516380	 2.384659	 28.388700	-0.000001	 18.063690	-6.394126	-15.346870	 10.791360	 14.182630	-4.894051	 8.107238	-3.932785	 8.254602	-91.776170	 78.527420	-180.000000	-33.918810	 38.480130	-32.112910	-28.535860	 20.350650	-62.773090	-42.880050	-36.386150	-24.865970	-4.130354	 21.526190	 0.991307	-5.167926	 0.731697	 3.519349	-1.378229	 35.397820	-2.634230	 15.071160	 5.710925	-5.176977	 7.654591	-18.649310	-4.701956	 89.782070	 78.203890	-180.000000	-54.821850	-6.104096	 81.254260	 15.108250	-3.095755	 136.092700	-15.320360	 3.228093	 8.663416	 5.716295	 19.173350	-3.684826	 5.027458	 0.246833	-9.377971	-2.350882	 35.473990	 5.254307
